<svg xmlns="http://www.w3.org/2000/svg" width="116" height="41" viewBox="0 0 116 41" fill="none" extension-installed="true">
<path d="M42.2638 37.8721C42.024 37.8721 41.9041 37.7588 41.9041 37.5324C41.9041 37.4391 41.9241 37.3325 41.964 37.2127L47.1395 24.8835C47.2327 24.6571 47.3326 24.5039 47.4392 24.4239C47.5591 24.3307 47.7256 24.2841 47.9388 24.2841H49.3975C49.6106 24.2841 49.7705 24.3307 49.877 24.4239C49.9836 24.5039 50.0835 24.6571 50.1768 24.8835L55.3522 37.2127C55.3922 37.3325 55.4122 37.4391 55.4122 37.5324C55.4122 37.7588 55.2923 37.8721 55.0525 37.8721H52.6346C52.4481 37.8721 52.3082 37.8454 52.215 37.7921C52.135 37.7255 52.0618 37.6123 51.9952 37.4524L51.076 35.0945H46.2203L45.3211 37.4524C45.2545 37.6123 45.1745 37.7255 45.0813 37.7921C45.0013 37.8454 44.8681 37.8721 44.6816 37.8721H42.2638ZM50.3167 32.7966L48.6581 28.4804L46.9796 32.7966H50.3167ZM60.5069 37.8721C60.1872 37.8721 59.954 37.8055 59.8075 37.6722C59.6743 37.5257 59.6077 37.3059 59.6077 37.0128V33.2362L54.7719 24.9435C54.7053 24.8369 54.672 24.7303 54.672 24.6238C54.672 24.5305 54.7053 24.4506 54.7719 24.384C54.8519 24.3174 54.9518 24.2841 55.0717 24.2841H57.4696C57.6561 24.2841 57.7893 24.3174 57.8692 24.384C57.9491 24.4373 58.0291 24.5372 58.109 24.6837L61.2662 30.2188L64.4234 24.6837C64.5033 24.5372 64.5833 24.4373 64.6632 24.384C64.7431 24.3174 64.8697 24.2841 65.0429 24.2841H67.4607C67.5806 24.2841 67.6739 24.3174 67.7405 24.384C67.8204 24.4506 67.8604 24.5305 67.8604 24.6238C67.8604 24.7303 67.8271 24.8369 67.7605 24.9435L62.9247 33.2561V37.0128C62.9247 37.3059 62.8515 37.5257 62.7049 37.6722C62.5717 37.8055 62.3386 37.8721 62.0056 37.8721H60.5069ZM74.4995 38.1718C73.4604 38.1718 72.4613 38.0652 71.5022 37.8521C70.5563 37.6256 69.7903 37.3126 69.2042 36.9129C69.0044 36.7664 68.9045 36.6332 68.9045 36.5133C68.9045 36.4333 68.9378 36.3401 69.0044 36.2335L69.8236 34.9347C69.9036 34.8014 69.9902 34.7348 70.0834 34.7348C70.1633 34.7348 70.2633 34.7748 70.3832 34.8547C70.876 35.1345 71.4422 35.361 72.0817 35.5341C72.7211 35.7073 73.3672 35.7939 74.0199 35.7939C74.7926 35.7939 75.3654 35.674 75.7384 35.4342C76.1114 35.1811 76.2979 34.7881 76.2979 34.2553C76.2979 33.8956 76.2047 33.6025 76.0182 33.376C75.845 33.1496 75.5786 32.9498 75.2189 32.7766C74.8725 32.6034 74.333 32.3769 73.6003 32.0972C72.7477 31.7775 72.0217 31.4511 71.4222 31.118C70.8361 30.785 70.3498 30.3587 69.9635 29.8392C69.5905 29.3063 69.404 28.6602 69.404 27.9009C69.404 26.6353 69.8636 25.6695 70.7828 25.0034C71.702 24.324 72.9143 23.9843 74.4196 23.9843C76.4045 23.9843 77.9232 24.3573 78.9756 25.1033C79.1754 25.2632 79.2753 25.3964 79.2753 25.503C79.2753 25.5829 79.242 25.6762 79.1754 25.7827L78.3561 27.0816C78.2762 27.2148 78.1896 27.2814 78.0963 27.2814C78.0164 27.2814 77.9165 27.2415 77.7966 27.1615C76.984 26.6287 75.9982 26.3622 74.8392 26.3622C73.4005 26.3622 72.6811 26.8818 72.6811 27.9209C72.6811 28.2672 72.7611 28.5536 72.9209 28.7801C73.0941 28.9932 73.3272 29.1797 73.6203 29.3396C73.9134 29.4861 74.373 29.6793 74.9991 29.9191L75.5586 30.1389C76.5311 30.5252 77.297 30.8916 77.8566 31.2379C78.4161 31.571 78.8423 31.9839 79.1354 32.4768C79.4418 32.9697 79.595 33.6025 79.595 34.3752C79.595 35.5341 79.1554 36.46 78.2762 37.1527C77.4103 37.8321 76.1514 38.1718 74.4995 38.1718ZM83.2249 37.8721C82.9052 37.8721 82.6721 37.8055 82.5256 37.6722C82.3923 37.5257 82.3257 37.3059 82.3257 37.0128V25.1633C82.3257 24.8702 82.3923 24.6504 82.5256 24.5039C82.6721 24.3573 82.9052 24.2841 83.2249 24.2841H84.7236C85.0567 24.2841 85.2898 24.3573 85.423 24.5039C85.5562 24.6371 85.6228 24.8569 85.6228 25.1633V29.8392H91.1779V25.1633C91.1779 24.8702 91.2445 24.6504 91.3777 24.5039C91.5243 24.3573 91.7641 24.2841 92.0971 24.2841H93.5758C93.9088 24.2841 94.142 24.3573 94.2752 24.5039C94.4217 24.6504 94.495 24.8702 94.495 25.1633V37.0128C94.495 37.3059 94.4217 37.5257 94.2752 37.6722C94.142 37.8055 93.9088 37.8721 93.5758 37.8721H92.0971C91.7641 37.8721 91.5243 37.8055 91.3777 37.6722C91.2445 37.5257 91.1779 37.3059 91.1779 37.0128V32.257H85.6228V37.0128C85.6228 37.3059 85.5562 37.5257 85.423 37.6722C85.2898 37.8055 85.0567 37.8721 84.7236 37.8721H83.2249ZM98.5302 37.8721C98.2105 37.8721 97.9773 37.8055 97.8308 37.6722C97.6976 37.5257 97.631 37.3059 97.631 37.0128V25.1633C97.631 24.8702 97.6976 24.6504 97.8308 24.5039C97.9773 24.3573 98.2105 24.2841 98.5302 24.2841H106.823C107.143 24.2841 107.362 24.3507 107.482 24.4839C107.602 24.6038 107.662 24.8169 107.662 25.1233V25.8627C107.662 26.1691 107.602 26.3889 107.482 26.5221C107.362 26.6553 107.143 26.7219 106.823 26.7219H100.928V29.8791H105.044C105.364 29.8791 105.584 29.9457 105.704 30.079C105.824 30.1988 105.884 30.412 105.884 30.7184V31.4178C105.884 31.7242 105.824 31.944 105.704 32.0772C105.584 32.2104 105.364 32.277 105.044 32.277H100.928V35.4542H106.803C107.123 35.4542 107.342 35.5208 107.462 35.654C107.582 35.7872 107.642 36.0071 107.642 36.3134V37.0328C107.642 37.3392 107.582 37.559 107.462 37.6922C107.342 37.8121 107.123 37.8721 106.803 37.8721H98.5302ZM111.103 37.8721C110.784 37.8721 110.551 37.8055 110.404 37.6722C110.271 37.5257 110.204 37.3059 110.204 37.0128V25.1633C110.204 24.8702 110.271 24.6504 110.404 24.5039C110.551 24.3573 110.784 24.2841 111.103 24.2841H112.602C112.935 24.2841 113.168 24.3573 113.301 24.5039C113.435 24.6371 113.501 24.8569 113.501 25.1633V37.0128C113.501 37.3059 113.435 37.5257 113.301 37.6722C113.168 37.8055 112.935 37.8721 112.602 37.8721H111.103Z" fill="#202539"/>
<path d="M65.3695 14.6145V13.0394H66.8088V14.6145H65.3695ZM47.1613 17.9818C46.573 17.9818 46.0253 17.8958 45.5184 17.7239C45.0205 17.5609 44.586 17.3301 44.2149 17.0314C43.8438 16.7417 43.5496 16.3932 43.3323 15.9859C43.1241 15.5876 43.02 15.1531 43.02 14.6824C43.02 14.5104 43.0336 14.2886 43.0608 14.017C43.0879 13.7455 43.1241 13.4332 43.1694 13.0802C43.2237 12.7271 43.2825 12.3515 43.3459 11.9532L45.1382 12.1976C45.0477 12.7679 44.9753 13.2748 44.921 13.7183C44.8666 14.1619 44.8395 14.4742 44.8395 14.6552C44.8395 14.9992 44.9345 15.3024 45.1246 15.5649C45.3147 15.8275 45.5818 16.0311 45.9257 16.176C46.2788 16.3298 46.6906 16.4068 47.1613 16.4068H51.0039C51.5923 16.4068 52.0313 16.2574 52.321 15.9587C52.6107 15.669 52.7555 15.2255 52.7555 14.6281C52.7555 14.3293 52.7057 14.0985 52.6061 13.9356C52.5066 13.7636 52.3301 13.6187 52.0766 13.5011C51.8231 13.3743 51.4565 13.2386 50.9768 13.0937C50.4337 12.9217 49.9584 12.7588 49.5511 12.6049C49.1437 12.451 48.8088 12.2836 48.5463 12.1025C48.2838 11.9124 48.0846 11.6861 47.9489 11.4236C47.8221 11.1611 47.7588 10.8307 47.7588 10.4324C47.7588 9.83499 47.89 9.34618 48.1525 8.96599C48.415 8.57676 48.7907 8.28709 49.2795 8.097C49.7683 7.89785 50.3477 7.79828 51.0175 7.79828L50.9496 9.37334C50.4518 9.37334 50.0942 9.45481 49.877 9.61774C49.6688 9.77163 49.5647 10.0115 49.5647 10.3374C49.5647 10.5818 49.6461 10.7809 49.8091 10.9348C49.9811 11.0796 50.2164 11.1973 50.5151 11.2878C50.8138 11.3784 51.1488 11.4825 51.5199 11.6001C52.1807 11.7993 52.7374 12.0211 53.19 12.2655C53.6426 12.5099 53.9821 12.8222 54.2084 13.2024C54.4437 13.5735 54.5614 14.0578 54.5614 14.6552C54.5614 15.307 54.4166 15.8818 54.1269 16.3796C53.8372 16.8775 53.4254 17.2667 52.8913 17.5473C52.3663 17.837 51.7371 17.9818 51.0039 17.9818H47.1613ZM50.9496 9.37334L51.0175 7.79828H55.5662V9.37334H50.9496ZM55.5662 14.6145V7.79828H57.3721V14.6145H55.5662ZM57.3721 14.6145V13.0394H58.4719C58.7615 13.0394 58.9833 12.9987 59.1372 12.9172C59.3001 12.8267 59.4088 12.6502 59.4631 12.3877C59.5264 12.1161 59.5581 11.7133 59.5581 11.1792V8.50434H61.3776V11.1792C61.3776 11.9849 61.2735 12.6411 61.0653 13.148C60.8571 13.655 60.5403 14.0261 60.1148 14.2614C59.6894 14.4968 59.1417 14.6145 58.4719 14.6145H57.3721ZM61.9614 14.6145C61.5903 14.6145 61.2237 14.5466 60.8616 14.4108C60.4995 14.266 60.1601 14.0532 59.8433 13.7726L60.9702 12.6185C61.1422 12.7633 61.3097 12.872 61.4726 12.9444C61.6356 13.0077 61.7985 13.0394 61.9614 13.0394H64.5141L63.5637 13.8948V10.8805C63.5637 10.7357 63.5456 10.5184 63.5093 10.2288C63.4822 9.93004 63.4369 9.59511 63.3736 9.22398C63.3193 8.84379 63.2559 8.45908 63.1835 8.06984L64.9622 7.79828C65.0256 8.12415 65.0889 8.49076 65.1523 8.8981C65.2157 9.29639 65.2654 9.67658 65.3017 10.0387C65.3469 10.3917 65.3695 10.6723 65.3695 10.8805V14.6145H61.9614ZM66.8088 14.6145V13.0394C66.9174 13.0394 66.9899 13.1118 67.0261 13.2567C67.0623 13.3924 67.0804 13.5825 67.0804 13.8269C67.0804 14.0623 67.0623 14.2524 67.0261 14.3972C66.9899 14.5421 66.9174 14.6145 66.8088 14.6145ZM58.9471 4.90615V3.54834H60.5222V4.90615H58.9471ZM57.63 6.98359V5.43569H59.3816V6.98359H57.63ZM60.1012 6.98359V5.43569H61.8528V6.98359H60.1012ZM46.9305 20.2901V18.7422H48.75V20.2901H46.9305ZM50.0396 20.2901V18.7422H51.8591V20.2901H50.0396Z" fill="#202539"/>
<path d="M66.8088 14.6145V13.0394H70.0267L68.9676 13.922V13.0436H70.7735V14.6145H66.8088ZM66.8088 14.6145C66.7002 14.6145 66.6277 14.5421 66.5915 14.3972C66.5553 14.2524 66.5372 14.0623 66.5372 13.8269C66.5372 13.5825 66.5553 13.3924 66.5915 13.2567C66.6277 13.1118 66.7002 13.0394 66.8088 13.0394V14.6145ZM103.82 17.4387V15.8908H105.639V17.4387H103.82ZM106.929 17.4387V15.8908H108.748V17.4387H106.929Z" fill="#202539"/>
<path d="M70.4707 13.0396H108.812V14.6143H70.4707V13.0396Z" fill="#202539"/>
<path d="M107.063 4.04785H108.812V14.5386H107.063V4.04785Z" fill="#202539"/>
<path d="M111.822 14.6808V0.0512695H113.423V14.6808H111.822Z" fill="#202539"/>
<circle cx="18.0827" cy="22.7839" r="17.3307" fill="#F9F9F9"/>
<path fill-rule="evenodd" clip-rule="evenodd" d="M12.6092 16.7181C13.716 16.5509 14.8352 17.1511 15.2802 18.2325L19.5565 28.6228C20.0796 29.8937 19.4733 31.3481 18.2023 31.8711C16.9314 32.3942 15.477 31.788 14.954 30.517L11.3103 21.6638L6.9373 21.5969C5.56308 21.5759 4.46609 20.4448 4.48711 19.0706C4.50813 17.6964 5.6392 16.5994 7.01342 16.6204L12.3625 16.7022C12.4458 16.7035 12.5281 16.7089 12.6092 16.7181Z" fill="#202539"/>
<path d="M23.1416 27.2289L20.667 21.6626" stroke="#202539" stroke-width="4.97708" stroke-linecap="round"/>
<path d="M31.1201 24.3335L29.58 20.5214C29.58 20.5214 28.7566 18.4781 26.6981 19.3091C24.6396 20.1402 25.4629 22.1835 25.4629 22.1835L27.003 25.9956C27.125 26.2853 27.4528 26.4302 27.7502 26.3082L30.8075 25.0731C31.0972 24.9587 31.2421 24.6232 31.1201 24.3335L31.1201 24.3335ZM27.3766 21.6269C27.0259 21.6269 26.7514 21.3448 26.7514 20.9941C26.7514 20.6433 27.0335 20.3613 27.3766 20.3613C27.7274 20.3613 28.0095 20.6434 28.0095 20.9941C28.0095 21.3448 27.7273 21.6269 27.3766 21.6269Z" fill="#CD6254"/>
</svg>